<?xml version="1.0" encoding="UTF-8" ?>
<!DOCTYPE svg PUBLIC "-//W3C//DTD SVG 1.1//EN" "http://www.w3.org/Graphics/SVG/1.1/DTD/svg11.dtd">
<svg width="60pt" height="60pt" viewBox="0 0 60 60" version="1.1" xmlns="http://www.w3.org/2000/svg">
<path fill="#ffffff" d=" M 0.00 0.00 L 60.00 0.00 L 60.00 60.00 L 0.00 60.00 L 0.00 0.00 Z" />
<path fill="#000000" d=" M 7.02 23.96 C 14.66 16.42 22.07 8.66 29.83 1.24 C 39.60 11.35 49.81 21.03 59.40 31.31 C 55.52 31.36 51.64 31.31 47.76 31.37 C 47.76 40.40 47.84 49.43 47.71 58.45 C 43.42 58.40 39.12 58.45 34.83 58.39 C 34.84 52.80 34.79 47.21 34.87 41.61 C 31.35 41.60 27.84 41.60 24.32 41.61 C 24.37 47.21 24.35 52.81 24.34 58.41 C 20.00 58.46 15.66 58.33 11.33 58.53 C 10.23 49.55 11.13 40.39 10.86 31.33 C 7.40 31.33 3.94 31.37 0.49 31.28 C 2.12 28.39 4.80 26.36 7.02 23.96 Z" />
</svg>
